<mxfile host="app.diagrams.net" modified="2021-09-22T08:32:09.986Z" agent="5.0 (Windows NT 10.0; Win64; x64) AppleWebKit/537.36 (KHTML, like Gecko) Chrome/93.0.4577.82 Safari/537.36" etag="UR123h-jQ3nZ-Euy2kgs" version="14.9.4" type="github">
  <diagram id="ZPih8gvWAh-61AwVxLuT" name="Page-1">
    <mxGraphModel dx="782" dy="491" grid="1" gridSize="10" guides="1" tooltips="1" connect="1" arrows="1" fold="1" page="1" pageScale="1" pageWidth="850" pageHeight="1100" math="0" shadow="0">
      <root>
        <mxCell id="0" />
        <mxCell id="1" parent="0" />
        <mxCell id="5Ky0o6CpZjZSUlPnSnDI-1" value="判断芯片型号" style="rhombus;whiteSpace=wrap;html=1;" vertex="1" parent="1">
          <mxGeometry x="300" y="30" width="170" height="70" as="geometry" />
        </mxCell>
        <mxCell id="5Ky0o6CpZjZSUlPnSnDI-2" value="" style="endArrow=classic;html=1;exitX=0.5;exitY=1;exitDx=0;exitDy=0;" edge="1" parent="1" source="5Ky0o6CpZjZSUlPnSnDI-1">
          <mxGeometry width="50" height="50" relative="1" as="geometry">
            <mxPoint x="380" y="280" as="sourcePoint" />
            <mxPoint x="385" y="180" as="targetPoint" />
          </mxGeometry>
        </mxCell>
        <mxCell id="5Ky0o6CpZjZSUlPnSnDI-4" value="PN553" style="edgeLabel;html=1;align=center;verticalAlign=middle;resizable=0;points=[];" vertex="1" connectable="0" parent="5Ky0o6CpZjZSUlPnSnDI-2">
          <mxGeometry x="-0.35" y="-4" relative="1" as="geometry">
            <mxPoint as="offset" />
          </mxGeometry>
        </mxCell>
        <mxCell id="5Ky0o6CpZjZSUlPnSnDI-3" value="" style="endArrow=classic;html=1;exitX=1;exitY=0.5;exitDx=0;exitDy=0;" edge="1" parent="1" source="5Ky0o6CpZjZSUlPnSnDI-1">
          <mxGeometry width="50" height="50" relative="1" as="geometry">
            <mxPoint x="380" y="280" as="sourcePoint" />
            <mxPoint x="470" y="180" as="targetPoint" />
          </mxGeometry>
        </mxCell>
        <mxCell id="5Ky0o6CpZjZSUlPnSnDI-5" value="PN557" style="edgeLabel;html=1;align=center;verticalAlign=middle;resizable=0;points=[];" vertex="1" connectable="0" parent="5Ky0o6CpZjZSUlPnSnDI-3">
          <mxGeometry x="-0.2" y="3" relative="1" as="geometry">
            <mxPoint as="offset" />
          </mxGeometry>
        </mxCell>
        <mxCell id="5Ky0o6CpZjZSUlPnSnDI-7" value="加载&lt;br&gt;PN553&lt;br&gt;config" style="rounded=0;whiteSpace=wrap;html=1;" vertex="1" parent="1">
          <mxGeometry x="351.25" y="180" width="67.5" height="50" as="geometry" />
        </mxCell>
        <mxCell id="5Ky0o6CpZjZSUlPnSnDI-9" value="&lt;span&gt;加载&lt;/span&gt;&lt;br&gt;&lt;span&gt;PN557&lt;/span&gt;&lt;br&gt;&lt;span&gt;config&lt;/span&gt;" style="rounded=0;whiteSpace=wrap;html=1;" vertex="1" parent="1">
          <mxGeometry x="440" y="180" width="67.5" height="50" as="geometry" />
        </mxCell>
        <mxCell id="5Ky0o6CpZjZSUlPnSnDI-10" value="下载&lt;br&gt;PN553&lt;br&gt;固件" style="rounded=0;whiteSpace=wrap;html=1;" vertex="1" parent="1">
          <mxGeometry x="351.25" y="260" width="67.5" height="50" as="geometry" />
        </mxCell>
        <mxCell id="5Ky0o6CpZjZSUlPnSnDI-11" value="下载&lt;br&gt;PN557&lt;br&gt;固件" style="rounded=0;whiteSpace=wrap;html=1;" vertex="1" parent="1">
          <mxGeometry x="440" y="260" width="67.5" height="50" as="geometry" />
        </mxCell>
        <mxCell id="5Ky0o6CpZjZSUlPnSnDI-12" value="" style="endArrow=classic;html=1;" edge="1" parent="1">
          <mxGeometry width="50" height="50" relative="1" as="geometry">
            <mxPoint x="385" y="232" as="sourcePoint" />
            <mxPoint x="385" y="260" as="targetPoint" />
          </mxGeometry>
        </mxCell>
        <mxCell id="5Ky0o6CpZjZSUlPnSnDI-14" value="" style="endArrow=classic;html=1;exitX=0.5;exitY=1;exitDx=0;exitDy=0;" edge="1" parent="1" source="5Ky0o6CpZjZSUlPnSnDI-9">
          <mxGeometry width="50" height="50" relative="1" as="geometry">
            <mxPoint x="395" y="242" as="sourcePoint" />
            <mxPoint x="474" y="260" as="targetPoint" />
          </mxGeometry>
        </mxCell>
        <mxCell id="5Ky0o6CpZjZSUlPnSnDI-15" value="NFC启动" style="rounded=0;whiteSpace=wrap;html=1;" vertex="1" parent="1">
          <mxGeometry x="325" y="420" width="120" height="60" as="geometry" />
        </mxCell>
        <mxCell id="5Ky0o6CpZjZSUlPnSnDI-16" value="" style="endArrow=classic;html=1;exitX=0.5;exitY=1;exitDx=0;exitDy=0;entryX=0.5;entryY=0;entryDx=0;entryDy=0;" edge="1" parent="1" source="5Ky0o6CpZjZSUlPnSnDI-10" target="5Ky0o6CpZjZSUlPnSnDI-15">
          <mxGeometry width="50" height="50" relative="1" as="geometry">
            <mxPoint x="380" y="350" as="sourcePoint" />
            <mxPoint x="430" y="300" as="targetPoint" />
          </mxGeometry>
        </mxCell>
        <mxCell id="5Ky0o6CpZjZSUlPnSnDI-17" value="" style="endArrow=classic;html=1;exitX=0.5;exitY=1;exitDx=0;exitDy=0;entryX=0.5;entryY=0;entryDx=0;entryDy=0;" edge="1" parent="1" source="5Ky0o6CpZjZSUlPnSnDI-11" target="5Ky0o6CpZjZSUlPnSnDI-15">
          <mxGeometry width="50" height="50" relative="1" as="geometry">
            <mxPoint x="380" y="350" as="sourcePoint" />
            <mxPoint x="430" y="300" as="targetPoint" />
          </mxGeometry>
        </mxCell>
        <mxCell id="5Ky0o6CpZjZSUlPnSnDI-18" value="加载&lt;br&gt;PN557&lt;br&gt;config" style="rounded=0;whiteSpace=wrap;html=1;" vertex="1" parent="1">
          <mxGeometry x="200" y="180" width="67.5" height="50" as="geometry" />
        </mxCell>
        <mxCell id="5Ky0o6CpZjZSUlPnSnDI-21" value="" style="endArrow=classic;html=1;exitX=0;exitY=0.5;exitDx=0;exitDy=0;" edge="1" parent="1" source="5Ky0o6CpZjZSUlPnSnDI-1" target="5Ky0o6CpZjZSUlPnSnDI-18">
          <mxGeometry width="50" height="50" relative="1" as="geometry">
            <mxPoint x="290" y="70" as="sourcePoint" />
            <mxPoint x="303" y="170" as="targetPoint" />
          </mxGeometry>
        </mxCell>
        <mxCell id="5Ky0o6CpZjZSUlPnSnDI-22" value="无法判断芯片型号" style="edgeLabel;html=1;align=center;verticalAlign=middle;resizable=0;points=[];" vertex="1" connectable="0" parent="5Ky0o6CpZjZSUlPnSnDI-21">
          <mxGeometry x="-0.2" y="3" relative="1" as="geometry">
            <mxPoint as="offset" />
          </mxGeometry>
        </mxCell>
        <mxCell id="5Ky0o6CpZjZSUlPnSnDI-26" value="" style="endArrow=classic;html=1;exitX=0.5;exitY=1;exitDx=0;exitDy=0;entryX=0.5;entryY=0;entryDx=0;entryDy=0;" edge="1" parent="1" source="5Ky0o6CpZjZSUlPnSnDI-18">
          <mxGeometry width="50" height="50" relative="1" as="geometry">
            <mxPoint x="380" y="250" as="sourcePoint" />
            <mxPoint x="233.75" y="260" as="targetPoint" />
          </mxGeometry>
        </mxCell>
        <mxCell id="5Ky0o6CpZjZSUlPnSnDI-28" value="&lt;span&gt;下载&lt;/span&gt;&lt;br&gt;&lt;span&gt;PN557&lt;/span&gt;&lt;br&gt;&lt;span&gt;固件&lt;/span&gt;" style="rhombus;whiteSpace=wrap;html=1;" vertex="1" parent="1">
          <mxGeometry x="163.75" y="260" width="140" height="70" as="geometry" />
        </mxCell>
        <mxCell id="5Ky0o6CpZjZSUlPnSnDI-29" value="" style="endArrow=classic;html=1;entryX=0.5;entryY=0;entryDx=0;entryDy=0;exitX=0.5;exitY=1;exitDx=0;exitDy=0;" edge="1" parent="1" source="5Ky0o6CpZjZSUlPnSnDI-28" target="5Ky0o6CpZjZSUlPnSnDI-15">
          <mxGeometry width="50" height="50" relative="1" as="geometry">
            <mxPoint x="260" y="400" as="sourcePoint" />
            <mxPoint x="310" y="350" as="targetPoint" />
          </mxGeometry>
        </mxCell>
        <mxCell id="5Ky0o6CpZjZSUlPnSnDI-31" value="下载成功" style="edgeLabel;html=1;align=center;verticalAlign=middle;resizable=0;points=[];" vertex="1" connectable="0" parent="5Ky0o6CpZjZSUlPnSnDI-29">
          <mxGeometry x="-0.2706" y="2" relative="1" as="geometry">
            <mxPoint as="offset" />
          </mxGeometry>
        </mxCell>
        <mxCell id="5Ky0o6CpZjZSUlPnSnDI-30" value="" style="endArrow=classic;html=1;exitX=1;exitY=0.5;exitDx=0;exitDy=0;" edge="1" parent="1" source="5Ky0o6CpZjZSUlPnSnDI-28">
          <mxGeometry width="50" height="50" relative="1" as="geometry">
            <mxPoint x="380" y="240" as="sourcePoint" />
            <mxPoint x="350" y="200" as="targetPoint" />
            <Array as="points">
              <mxPoint x="320" y="220" />
            </Array>
          </mxGeometry>
        </mxCell>
        <mxCell id="5Ky0o6CpZjZSUlPnSnDI-32" value="下载失败" style="edgeLabel;html=1;align=center;verticalAlign=middle;resizable=0;points=[];" vertex="1" connectable="0" parent="5Ky0o6CpZjZSUlPnSnDI-30">
          <mxGeometry x="-0.1124" relative="1" as="geometry">
            <mxPoint as="offset" />
          </mxGeometry>
        </mxCell>
      </root>
    </mxGraphModel>
  </diagram>
</mxfile>
